<mxfile host="app.diagrams.net" modified="2024-02-21T07:17:04.434Z" agent="Mozilla/5.0 (Windows NT 10.0; Win64; x64) AppleWebKit/537.36 (KHTML, like Gecko) Chrome/121.0.0.0 Safari/537.36" version="23.1.5" etag="xXXO49yCOwMID3pRKSl0" type="github">
  <diagram name="第 1 页" id="LY0YPnrHA6B2b3IWMHaJ">
    <mxGraphModel>
      <root>
        <mxCell id="0" />
        <mxCell id="1" parent="0" />
      </root>
    </mxGraphModel>
  </diagram>
</mxfile>
